<?xml version="1.0" encoding="UTF-8" standalone="no"?>
<!DOCTYPE svg PUBLIC "-//W3C//DTD SVG 1.1//EN"
 "http://www.w3.org/Graphics/SVG/1.1/DTD/svg11.dtd">
<!-- Generated by graphviz version 2.43.0 (0)
 -->
<!-- Title: RECURSIVE Pages: 1 -->
<svg width="672pt" height="404pt"
 viewBox="0.00 0.00 672.00 404.00" xmlns="http://www.w3.org/2000/svg" xmlns:xlink="http://www.w3.org/1999/xlink">
<g id="graph0" class="graph" transform="scale(1 1) rotate(0) translate(4 400)">
<title>RECURSIVE</title>
<polygon fill="white" stroke="transparent" points="-4,4 -4,-400 668,-400 668,4 -4,4"/>
<!-- a -->
<g id="node1" class="node">
<title>a</title>
<ellipse fill="none" stroke="black" cx="161" cy="-378" rx="27" ry="18"/>
<text text-anchor="middle" x="161" y="-374.3" font-family="Times,serif" font-size="14.00">a</text>
</g>
<!-- ab -->
<g id="node2" class="node">
<title>ab</title>
<ellipse fill="none" stroke="black" cx="161" cy="-306" rx="27" ry="18"/>
<text text-anchor="middle" x="161" y="-302.3" font-family="Times,serif" font-size="14.00">ab</text>
</g>
<!-- a&#45;&gt;ab -->
<g id="edge1" class="edge">
<title>a&#45;&gt;ab</title>
<path fill="none" stroke="black" d="M161,-359.7C161,-351.98 161,-342.71 161,-334.11"/>
<polygon fill="black" stroke="black" points="164.5,-334.1 161,-324.1 157.5,-334.1 164.5,-334.1"/>
</g>
<!-- ad -->
<g id="node3" class="node">
<title>ad</title>
<ellipse fill="none" stroke="black" cx="341" cy="-306" rx="27" ry="18"/>
<text text-anchor="middle" x="341" y="-302.3" font-family="Times,serif" font-size="14.00">ad</text>
</g>
<!-- a&#45;&gt;ad -->
<g id="edge2" class="edge">
<title>a&#45;&gt;ad</title>
<path fill="none" stroke="black" d="M183.8,-368.13C215.36,-355.86 272.54,-333.62 308.55,-319.62"/>
<polygon fill="black" stroke="black" points="310.05,-322.79 318.1,-315.9 307.52,-316.27 310.05,-322.79"/>
</g>
<!-- ae -->
<g id="node4" class="node">
<title>ae</title>
<ellipse fill="none" stroke="black" cx="27" cy="-162" rx="27" ry="18"/>
<text text-anchor="middle" x="27" y="-158.3" font-family="Times,serif" font-size="14.00">ae</text>
</g>
<!-- a&#45;&gt;ae -->
<g id="edge3" class="edge">
<title>a&#45;&gt;ae</title>
<path fill="none" stroke="black" d="M150.49,-361.05C127.05,-323.28 70.43,-232 42.75,-187.39"/>
<polygon fill="black" stroke="black" points="45.71,-185.52 37.47,-178.87 39.76,-189.21 45.71,-185.52"/>
</g>
<!-- h -->
<g id="node23" class="node">
<title>h</title>
<ellipse fill="none" stroke="black" cx="148" cy="-234" rx="27" ry="18"/>
<text text-anchor="middle" x="148" y="-230.3" font-family="Times,serif" font-size="14.00">h</text>
</g>
<!-- ab&#45;&gt;h -->
<g id="edge40" class="edge">
<title>ab&#45;&gt;h</title>
<path fill="none" stroke="black" d="M157.85,-288.05C156.42,-280.35 154.69,-271.03 153.08,-262.36"/>
<polygon fill="black" stroke="black" points="156.48,-261.47 151.21,-252.28 149.59,-262.75 156.48,-261.47"/>
</g>
<!-- g -->
<g id="node20" class="node">
<title>g</title>
<ellipse fill="none" stroke="black" cx="341" cy="-234" rx="27" ry="18"/>
<text text-anchor="middle" x="341" y="-230.3" font-family="Times,serif" font-size="14.00">g</text>
</g>
<!-- ad&#45;&gt;g -->
<g id="edge43" class="edge">
<title>ad&#45;&gt;g</title>
<path fill="none" stroke="black" d="M341,-287.7C341,-279.98 341,-270.71 341,-262.11"/>
<polygon fill="black" stroke="black" points="344.5,-262.1 341,-252.1 337.5,-262.1 344.5,-262.1"/>
</g>
<!-- b -->
<g id="node5" class="node">
<title>b</title>
<ellipse fill="none" stroke="black" cx="269" cy="-378" rx="27" ry="18"/>
<text text-anchor="middle" x="269" y="-374.3" font-family="Times,serif" font-size="14.00">b</text>
</g>
<!-- b&#45;&gt;ab -->
<g id="edge4" class="edge">
<title>b&#45;&gt;ab</title>
<path fill="none" stroke="black" d="M250.19,-364.81C233,-353.67 207.38,-337.06 188.01,-324.5"/>
<polygon fill="black" stroke="black" points="189.89,-321.56 179.6,-319.05 186.08,-327.43 189.89,-321.56"/>
</g>
<!-- bc -->
<g id="node6" class="node">
<title>bc</title>
<ellipse fill="none" stroke="black" cx="269" cy="-306" rx="27" ry="18"/>
<text text-anchor="middle" x="269" y="-302.3" font-family="Times,serif" font-size="14.00">bc</text>
</g>
<!-- b&#45;&gt;bc -->
<g id="edge5" class="edge">
<title>b&#45;&gt;bc</title>
<path fill="none" stroke="black" d="M269,-359.7C269,-351.98 269,-342.71 269,-334.11"/>
<polygon fill="black" stroke="black" points="272.5,-334.1 269,-324.1 265.5,-334.1 272.5,-334.1"/>
</g>
<!-- bf -->
<g id="node7" class="node">
<title>bf</title>
<ellipse fill="none" stroke="black" cx="611" cy="-162" rx="27" ry="18"/>
<text text-anchor="middle" x="611" y="-158.3" font-family="Times,serif" font-size="14.00">bf</text>
</g>
<!-- b&#45;&gt;bf -->
<g id="edge6" class="edge">
<title>b&#45;&gt;bf</title>
<path fill="none" stroke="black" d="M288.87,-365.45C346.6,-328.99 514.52,-222.93 582.21,-180.18"/>
<polygon fill="black" stroke="black" points="584.49,-182.88 591.08,-174.58 580.76,-176.96 584.49,-182.88"/>
</g>
<!-- e -->
<g id="node13" class="node">
<title>e</title>
<ellipse fill="none" stroke="black" cx="269" cy="-234" rx="27" ry="18"/>
<text text-anchor="middle" x="269" y="-230.3" font-family="Times,serif" font-size="14.00">e</text>
</g>
<!-- bc&#45;&gt;e -->
<g id="edge41" class="edge">
<title>bc&#45;&gt;e</title>
<path fill="none" stroke="black" d="M269,-287.7C269,-279.98 269,-270.71 269,-262.11"/>
<polygon fill="black" stroke="black" points="272.5,-262.1 269,-252.1 265.5,-262.1 272.5,-262.1"/>
</g>
<!-- c -->
<g id="node8" class="node">
<title>c</title>
<ellipse fill="none" stroke="black" cx="425" cy="-378" rx="27" ry="18"/>
<text text-anchor="middle" x="425" y="-374.3" font-family="Times,serif" font-size="14.00">c</text>
</g>
<!-- c&#45;&gt;bc -->
<g id="edge7" class="edge">
<title>c&#45;&gt;bc</title>
<path fill="none" stroke="black" d="M403.31,-367.27C376.49,-355.23 330.66,-334.67 300.1,-320.95"/>
<polygon fill="black" stroke="black" points="301.31,-317.66 290.76,-316.76 298.45,-324.05 301.31,-317.66"/>
</g>
<!-- cd -->
<g id="node9" class="node">
<title>cd</title>
<ellipse fill="none" stroke="black" cx="489" cy="-306" rx="27" ry="18"/>
<text text-anchor="middle" x="489" y="-302.3" font-family="Times,serif" font-size="14.00">cd</text>
</g>
<!-- c&#45;&gt;cd -->
<g id="edge8" class="edge">
<title>c&#45;&gt;cd</title>
<path fill="none" stroke="black" d="M438.57,-362.15C447.31,-352.6 458.83,-339.99 468.66,-329.25"/>
<polygon fill="black" stroke="black" points="471.28,-331.57 475.45,-321.82 466.12,-326.84 471.28,-331.57"/>
</g>
<!-- cg -->
<g id="node10" class="node">
<title>cg</title>
<ellipse fill="none" stroke="black" cx="357" cy="-162" rx="27" ry="18"/>
<text text-anchor="middle" x="357" y="-158.3" font-family="Times,serif" font-size="14.00">cg</text>
</g>
<!-- c&#45;&gt;cg -->
<g id="edge9" class="edge">
<title>c&#45;&gt;cg</title>
<path fill="none" stroke="black" d="M419.44,-360.32C407.58,-322.65 379.74,-234.25 365.59,-189.29"/>
<polygon fill="black" stroke="black" points="368.89,-188.1 362.55,-179.62 362.21,-190.21 368.89,-188.1"/>
</g>
<!-- f -->
<g id="node17" class="node">
<title>f</title>
<ellipse fill="none" stroke="black" cx="489" cy="-234" rx="27" ry="18"/>
<text text-anchor="middle" x="489" y="-230.3" font-family="Times,serif" font-size="14.00">f</text>
</g>
<!-- cd&#45;&gt;f -->
<g id="edge42" class="edge">
<title>cd&#45;&gt;f</title>
<path fill="none" stroke="black" d="M489,-287.7C489,-279.98 489,-270.71 489,-262.11"/>
<polygon fill="black" stroke="black" points="492.5,-262.1 489,-252.1 485.5,-262.1 492.5,-262.1"/>
</g>
<!-- d -->
<g id="node11" class="node">
<title>d</title>
<ellipse fill="none" stroke="black" cx="497" cy="-378" rx="27" ry="18"/>
<text text-anchor="middle" x="497" y="-374.3" font-family="Times,serif" font-size="14.00">d</text>
</g>
<!-- d&#45;&gt;ad -->
<g id="edge10" class="edge">
<title>d&#45;&gt;ad</title>
<path fill="none" stroke="black" d="M475.31,-367.27C448.49,-355.23 402.66,-334.67 372.1,-320.95"/>
<polygon fill="black" stroke="black" points="373.31,-317.66 362.76,-316.76 370.45,-324.05 373.31,-317.66"/>
</g>
<!-- d&#45;&gt;cd -->
<g id="edge11" class="edge">
<title>d&#45;&gt;cd</title>
<path fill="none" stroke="black" d="M495.02,-359.7C494.14,-351.98 493.08,-342.71 492.1,-334.11"/>
<polygon fill="black" stroke="black" points="495.57,-333.64 490.95,-324.1 488.61,-334.44 495.57,-333.64"/>
</g>
<!-- dh -->
<g id="node12" class="node">
<title>dh</title>
<ellipse fill="none" stroke="black" cx="561" cy="-306" rx="27" ry="18"/>
<text text-anchor="middle" x="561" y="-302.3" font-family="Times,serif" font-size="14.00">dh</text>
</g>
<!-- d&#45;&gt;dh -->
<g id="edge12" class="edge">
<title>d&#45;&gt;dh</title>
<path fill="none" stroke="black" d="M510.57,-362.15C519.31,-352.6 530.83,-339.99 540.66,-329.25"/>
<polygon fill="black" stroke="black" points="543.28,-331.57 547.45,-321.82 538.12,-326.84 543.28,-331.57"/>
</g>
<!-- e&#45;&gt;ae -->
<g id="edge13" class="edge">
<title>e&#45;&gt;ae</title>
<path fill="none" stroke="black" d="M244.46,-225.9C201.05,-213.34 110.62,-187.19 61.14,-172.88"/>
<polygon fill="black" stroke="black" points="61.82,-169.43 51.24,-170.01 59.87,-176.15 61.82,-169.43"/>
</g>
<!-- ef -->
<g id="node14" class="node">
<title>ef</title>
<ellipse fill="none" stroke="black" cx="429" cy="-162" rx="27" ry="18"/>
<text text-anchor="middle" x="429" y="-158.3" font-family="Times,serif" font-size="14.00">ef</text>
</g>
<!-- e&#45;&gt;ef -->
<g id="edge14" class="edge">
<title>e&#45;&gt;ef</title>
<path fill="none" stroke="black" d="M290.91,-223.41C318.6,-211.3 366.43,-190.37 397.9,-176.61"/>
<polygon fill="black" stroke="black" points="399.34,-179.8 407.1,-172.58 396.53,-173.38 399.34,-179.8"/>
</g>
<!-- eh -->
<g id="node15" class="node">
<title>eh</title>
<ellipse fill="none" stroke="black" cx="137" cy="-162" rx="27" ry="18"/>
<text text-anchor="middle" x="137" y="-158.3" font-family="Times,serif" font-size="14.00">eh</text>
</g>
<!-- e&#45;&gt;eh -->
<g id="edge15" class="edge">
<title>e&#45;&gt;eh</title>
<path fill="none" stroke="black" d="M248.38,-222.06C226.39,-210.4 191.37,-191.83 166.48,-178.63"/>
<polygon fill="black" stroke="black" points="167.95,-175.45 157.48,-173.86 164.68,-181.64 167.95,-175.45"/>
</g>
<!-- ei -->
<g id="node16" class="node">
<title>ei</title>
<ellipse fill="none" stroke="black" cx="637" cy="-18" rx="27" ry="18"/>
<text text-anchor="middle" x="637" y="-14.3" font-family="Times,serif" font-size="14.00">ei</text>
</g>
<!-- e&#45;&gt;ei -->
<g id="edge16" class="edge">
<title>e&#45;&gt;ei</title>
<path fill="none" stroke="black" d="M289.31,-222.08C350.74,-186.02 534.8,-77.99 607.24,-35.47"/>
<polygon fill="black" stroke="black" points="609.45,-38.23 616.3,-30.15 605.9,-32.19 609.45,-38.23"/>
</g>
<!-- l -->
<g id="node32" class="node">
<title>l</title>
<ellipse fill="none" stroke="black" cx="357" cy="-90" rx="27" ry="18"/>
<text text-anchor="middle" x="357" y="-86.3" font-family="Times,serif" font-size="14.00">l</text>
</g>
<!-- ef&#45;&gt;l -->
<g id="edge44" class="edge">
<title>ef&#45;&gt;l</title>
<path fill="none" stroke="black" d="M414.43,-146.83C404.25,-136.94 390.48,-123.55 378.97,-112.36"/>
<polygon fill="black" stroke="black" points="381.41,-109.85 371.8,-105.38 376.53,-114.87 381.41,-109.85"/>
</g>
<!-- k -->
<g id="node30" class="node">
<title>k</title>
<ellipse fill="none" stroke="black" cx="285" cy="-90" rx="27" ry="18"/>
<text text-anchor="middle" x="285" y="-86.3" font-family="Times,serif" font-size="14.00">k</text>
</g>
<!-- eh&#45;&gt;k -->
<g id="edge47" class="edge">
<title>eh&#45;&gt;k</title>
<path fill="none" stroke="black" d="M158.52,-150.82C183.73,-138.9 225.68,-119.06 254.3,-105.52"/>
<polygon fill="black" stroke="black" points="255.91,-108.63 263.45,-101.19 252.92,-102.3 255.91,-108.63"/>
</g>
<!-- f&#45;&gt;bf -->
<g id="edge17" class="edge">
<title>f&#45;&gt;bf</title>
<path fill="none" stroke="black" d="M508.87,-221.6C528.81,-210.16 559.73,-192.42 582.32,-179.46"/>
<polygon fill="black" stroke="black" points="584.2,-182.41 591.14,-174.4 580.72,-176.34 584.2,-182.41"/>
</g>
<!-- f&#45;&gt;ef -->
<g id="edge18" class="edge">
<title>f&#45;&gt;ef</title>
<path fill="none" stroke="black" d="M475.98,-217.81C467.96,-208.45 457.53,-196.28 448.53,-185.79"/>
<polygon fill="black" stroke="black" points="451.16,-183.47 441.99,-178.16 445.84,-188.03 451.16,-183.47"/>
</g>
<!-- fg -->
<g id="node18" class="node">
<title>fg</title>
<ellipse fill="none" stroke="black" cx="501" cy="-162" rx="27" ry="18"/>
<text text-anchor="middle" x="501" y="-158.3" font-family="Times,serif" font-size="14.00">fg</text>
</g>
<!-- f&#45;&gt;fg -->
<g id="edge19" class="edge">
<title>f&#45;&gt;fg</title>
<path fill="none" stroke="black" d="M491.9,-216.05C493.23,-208.35 494.82,-199.03 496.31,-190.36"/>
<polygon fill="black" stroke="black" points="499.8,-190.72 498.04,-180.28 492.9,-189.54 499.8,-190.72"/>
</g>
<!-- fj -->
<g id="node19" class="node">
<title>fj</title>
<ellipse fill="none" stroke="black" cx="565" cy="-18" rx="27" ry="18"/>
<text text-anchor="middle" x="565" y="-14.3" font-family="Times,serif" font-size="14.00">fj</text>
</g>
<!-- f&#45;&gt;fj -->
<g id="edge20" class="edge">
<title>f&#45;&gt;fj</title>
<path fill="none" stroke="black" d="M495.22,-216.32C508.47,-178.65 539.58,-90.25 555.4,-45.29"/>
<polygon fill="black" stroke="black" points="558.78,-46.21 558.8,-35.62 552.18,-43.89 558.78,-46.21"/>
</g>
<!-- i -->
<g id="node25" class="node">
<title>i</title>
<ellipse fill="none" stroke="black" cx="501" cy="-90" rx="27" ry="18"/>
<text text-anchor="middle" x="501" y="-86.3" font-family="Times,serif" font-size="14.00">i</text>
</g>
<!-- fg&#45;&gt;i -->
<g id="edge45" class="edge">
<title>fg&#45;&gt;i</title>
<path fill="none" stroke="black" d="M501,-143.7C501,-135.98 501,-126.71 501,-118.11"/>
<polygon fill="black" stroke="black" points="504.5,-118.1 501,-108.1 497.5,-118.1 504.5,-118.1"/>
</g>
<!-- g&#45;&gt;cg -->
<g id="edge21" class="edge">
<title>g&#45;&gt;cg</title>
<path fill="none" stroke="black" d="M344.87,-216.05C346.65,-208.26 348.81,-198.82 350.81,-190.08"/>
<polygon fill="black" stroke="black" points="354.24,-190.8 353.05,-180.28 347.41,-189.24 354.24,-190.8"/>
</g>
<!-- g&#45;&gt;fg -->
<g id="edge22" class="edge">
<title>g&#45;&gt;fg</title>
<path fill="none" stroke="black" d="M362.91,-223.41C390.6,-211.3 438.43,-190.37 469.9,-176.61"/>
<polygon fill="black" stroke="black" points="471.34,-179.8 479.1,-172.58 468.53,-173.38 471.34,-179.8"/>
</g>
<!-- gh -->
<g id="node21" class="node">
<title>gh</title>
<ellipse fill="none" stroke="black" cx="209" cy="-162" rx="27" ry="18"/>
<text text-anchor="middle" x="209" y="-158.3" font-family="Times,serif" font-size="14.00">gh</text>
</g>
<!-- g&#45;&gt;gh -->
<g id="edge23" class="edge">
<title>g&#45;&gt;gh</title>
<path fill="none" stroke="black" d="M320.38,-222.06C298.39,-210.4 263.37,-191.83 238.48,-178.63"/>
<polygon fill="black" stroke="black" points="239.95,-175.45 229.48,-173.86 236.68,-181.64 239.95,-175.45"/>
</g>
<!-- gk -->
<g id="node22" class="node">
<title>gk</title>
<ellipse fill="none" stroke="black" cx="205" cy="-18" rx="27" ry="18"/>
<text text-anchor="middle" x="205" y="-14.3" font-family="Times,serif" font-size="14.00">gk</text>
</g>
<!-- g&#45;&gt;gk -->
<g id="edge24" class="edge">
<title>g&#45;&gt;gk</title>
<path fill="none" stroke="black" d="M330.33,-217.05C306.54,-179.28 249.07,-88 220.99,-43.39"/>
<polygon fill="black" stroke="black" points="223.91,-41.47 215.62,-34.87 217.99,-45.2 223.91,-41.47"/>
</g>
<!-- j -->
<g id="node28" class="node">
<title>j</title>
<ellipse fill="none" stroke="black" cx="429" cy="-90" rx="27" ry="18"/>
<text text-anchor="middle" x="429" y="-86.3" font-family="Times,serif" font-size="14.00">j</text>
</g>
<!-- gh&#45;&gt;j -->
<g id="edge46" class="edge">
<title>gh&#45;&gt;j</title>
<path fill="none" stroke="black" d="M232.96,-153.38C272.31,-140.86 350.69,-115.92 395.51,-101.66"/>
<polygon fill="black" stroke="black" points="396.6,-104.98 405.07,-98.62 394.48,-98.31 396.6,-104.98"/>
</g>
<!-- h&#45;&gt;eh -->
<g id="edge25" class="edge">
<title>h&#45;&gt;eh</title>
<path fill="none" stroke="black" d="M145.34,-216.05C144.13,-208.35 142.66,-199.03 141.3,-190.36"/>
<polygon fill="black" stroke="black" points="144.72,-189.61 139.71,-180.28 137.81,-190.7 144.72,-189.61"/>
</g>
<!-- h&#45;&gt;gh -->
<g id="edge26" class="edge">
<title>h&#45;&gt;gh</title>
<path fill="none" stroke="black" d="M160.94,-218.15C169.19,-208.69 180.04,-196.24 189.34,-185.56"/>
<polygon fill="black" stroke="black" points="192.15,-187.66 196.08,-177.82 186.87,-183.06 192.15,-187.66"/>
</g>
<!-- hl -->
<g id="node24" class="node">
<title>hl</title>
<ellipse fill="none" stroke="black" cx="104" cy="-18" rx="27" ry="18"/>
<text text-anchor="middle" x="104" y="-14.3" font-family="Times,serif" font-size="14.00">hl</text>
</g>
<!-- h&#45;&gt;hl -->
<g id="edge27" class="edge">
<title>h&#45;&gt;hl</title>
<path fill="none" stroke="black" d="M144.32,-215.96C136.64,-178.22 118.82,-90.75 109.66,-45.79"/>
<polygon fill="black" stroke="black" points="113.06,-44.94 107.63,-35.84 106.2,-46.34 113.06,-44.94"/>
</g>
<!-- i&#45;&gt;ei -->
<g id="edge28" class="edge">
<title>i&#45;&gt;ei</title>
<path fill="none" stroke="black" d="M521.66,-78.37C544.42,-66.65 581.24,-47.7 607.15,-34.37"/>
<polygon fill="black" stroke="black" points="608.86,-37.42 616.15,-29.73 605.66,-31.2 608.86,-37.42"/>
</g>
<!-- ij -->
<g id="node26" class="node">
<title>ij</title>
<ellipse fill="none" stroke="black" cx="493" cy="-18" rx="27" ry="18"/>
<text text-anchor="middle" x="493" y="-14.3" font-family="Times,serif" font-size="14.00">ij</text>
</g>
<!-- i&#45;&gt;ij -->
<g id="edge29" class="edge">
<title>i&#45;&gt;ij</title>
<path fill="none" stroke="black" d="M499.02,-71.7C498.14,-63.98 497.08,-54.71 496.1,-46.11"/>
<polygon fill="black" stroke="black" points="499.57,-45.64 494.95,-36.1 492.61,-46.44 499.57,-45.64"/>
</g>
<!-- il -->
<g id="node27" class="node">
<title>il</title>
<ellipse fill="none" stroke="black" cx="421" cy="-18" rx="27" ry="18"/>
<text text-anchor="middle" x="421" y="-14.3" font-family="Times,serif" font-size="14.00">il</text>
</g>
<!-- i&#45;&gt;il -->
<g id="edge30" class="edge">
<title>i&#45;&gt;il</title>
<path fill="none" stroke="black" d="M485.19,-75.17C473.58,-65.01 457.61,-51.03 444.5,-39.56"/>
<polygon fill="black" stroke="black" points="446.6,-36.75 436.77,-32.8 441.99,-42.02 446.6,-36.75"/>
</g>
<!-- j&#45;&gt;fj -->
<g id="edge31" class="edge">
<title>j&#45;&gt;fj</title>
<path fill="none" stroke="black" d="M449.66,-78.37C472.42,-66.65 509.24,-47.7 535.15,-34.37"/>
<polygon fill="black" stroke="black" points="536.86,-37.42 544.15,-29.73 533.66,-31.2 536.86,-37.42"/>
</g>
<!-- j&#45;&gt;ij -->
<g id="edge32" class="edge">
<title>j&#45;&gt;ij</title>
<path fill="none" stroke="black" d="M442.57,-74.15C451.31,-64.6 462.83,-51.99 472.66,-41.25"/>
<polygon fill="black" stroke="black" points="475.28,-43.57 479.45,-33.82 470.12,-38.84 475.28,-43.57"/>
</g>
<!-- jk -->
<g id="node29" class="node">
<title>jk</title>
<ellipse fill="none" stroke="black" cx="349" cy="-18" rx="27" ry="18"/>
<text text-anchor="middle" x="349" y="-14.3" font-family="Times,serif" font-size="14.00">jk</text>
</g>
<!-- j&#45;&gt;jk -->
<g id="edge33" class="edge">
<title>j&#45;&gt;jk</title>
<path fill="none" stroke="black" d="M413.19,-75.17C401.58,-65.01 385.61,-51.03 372.5,-39.56"/>
<polygon fill="black" stroke="black" points="374.6,-36.75 364.77,-32.8 369.99,-42.02 374.6,-36.75"/>
</g>
<!-- k&#45;&gt;gk -->
<g id="edge34" class="edge">
<title>k&#45;&gt;gk</title>
<path fill="none" stroke="black" d="M269.19,-75.17C257.58,-65.01 241.61,-51.03 228.5,-39.56"/>
<polygon fill="black" stroke="black" points="230.6,-36.75 220.77,-32.8 225.99,-42.02 230.6,-36.75"/>
</g>
<!-- k&#45;&gt;jk -->
<g id="edge35" class="edge">
<title>k&#45;&gt;jk</title>
<path fill="none" stroke="black" d="M298.57,-74.15C307.31,-64.6 318.83,-51.99 328.66,-41.25"/>
<polygon fill="black" stroke="black" points="331.28,-43.57 335.45,-33.82 326.12,-38.84 331.28,-43.57"/>
</g>
<!-- kl -->
<g id="node31" class="node">
<title>kl</title>
<ellipse fill="none" stroke="black" cx="277" cy="-18" rx="27" ry="18"/>
<text text-anchor="middle" x="277" y="-14.3" font-family="Times,serif" font-size="14.00">kl</text>
</g>
<!-- k&#45;&gt;kl -->
<g id="edge36" class="edge">
<title>k&#45;&gt;kl</title>
<path fill="none" stroke="black" d="M283.02,-71.7C282.14,-63.98 281.08,-54.71 280.1,-46.11"/>
<polygon fill="black" stroke="black" points="283.57,-45.64 278.95,-36.1 276.61,-46.44 283.57,-45.64"/>
</g>
<!-- l&#45;&gt;hl -->
<g id="edge37" class="edge">
<title>l&#45;&gt;hl</title>
<path fill="none" stroke="black" d="M332.28,-82.16C286.82,-69.58 189.87,-42.76 138.16,-28.45"/>
<polygon fill="black" stroke="black" points="139.02,-25.06 128.45,-25.76 137.15,-31.8 139.02,-25.06"/>
</g>
<!-- l&#45;&gt;il -->
<g id="edge38" class="edge">
<title>l&#45;&gt;il</title>
<path fill="none" stroke="black" d="M370.57,-74.15C379.31,-64.6 390.83,-51.99 400.66,-41.25"/>
<polygon fill="black" stroke="black" points="403.28,-43.57 407.45,-33.82 398.12,-38.84 403.28,-43.57"/>
</g>
<!-- l&#45;&gt;kl -->
<g id="edge39" class="edge">
<title>l&#45;&gt;kl</title>
<path fill="none" stroke="black" d="M341.19,-75.17C329.58,-65.01 313.61,-51.03 300.5,-39.56"/>
<polygon fill="black" stroke="black" points="302.6,-36.75 292.77,-32.8 297.99,-42.02 302.6,-36.75"/>
</g>
</g>
</svg>
