<?xml version="1.0" encoding="UTF-8" standalone="no"?>
<!DOCTYPE svg PUBLIC "-//W3C//DTD SVG 1.1//EN"
 "http://www.w3.org/Graphics/SVG/1.1/DTD/svg11.dtd">
<!-- Generated by graphviz version 2.43.0 (0)
 -->
<!-- Title: SIMPLE Pages: 1 -->
<svg width="390pt" height="260pt"
 viewBox="0.00 0.00 390.00 260.00" xmlns="http://www.w3.org/2000/svg" xmlns:xlink="http://www.w3.org/1999/xlink">
<g id="graph0" class="graph" transform="scale(1 1) rotate(0) translate(4 256)">
<title>SIMPLE</title>
<polygon fill="white" stroke="transparent" points="-4,4 -4,-256 386,-256 386,4 -4,4"/>
<!-- a -->
<g id="node1" class="node">
<title>a</title>
<ellipse fill="none" stroke="black" cx="27" cy="-234" rx="27" ry="18"/>
<text text-anchor="middle" x="27" y="-230.3" font-family="Times,serif" font-size="14.00">a</text>
</g>
<!-- ab -->
<g id="node8" class="node">
<title>ab</title>
<ellipse fill="none" stroke="black" cx="63" cy="-162" rx="27" ry="18"/>
<text text-anchor="middle" x="63" y="-158.3" font-family="Times,serif" font-size="14.00">ab</text>
</g>
<!-- a&#45;&gt;ab -->
<g id="edge1" class="edge">
<title>a&#45;&gt;ab</title>
<path fill="none" stroke="black" d="M35.35,-216.76C39.71,-208.28 45.15,-197.71 50.04,-188.2"/>
<polygon fill="black" stroke="black" points="53.23,-189.64 54.7,-179.15 47.01,-186.44 53.23,-189.64"/>
</g>
<!-- ae -->
<g id="node11" class="node">
<title>ae</title>
<ellipse fill="none" stroke="black" cx="55" cy="-18" rx="27" ry="18"/>
<text text-anchor="middle" x="55" y="-14.3" font-family="Times,serif" font-size="14.00">ae</text>
</g>
<!-- a&#45;&gt;ae -->
<g id="edge2" class="edge">
<title>a&#45;&gt;ae</title>
<path fill="none" stroke="black" d="M25.89,-215.88C24.98,-197.91 24.25,-168.88 27,-144 30.81,-109.57 40.35,-70.77 47.23,-45.66"/>
<polygon fill="black" stroke="black" points="50.67,-46.36 50,-35.78 43.93,-44.47 50.67,-46.36"/>
</g>
<!-- b -->
<g id="node2" class="node">
<title>b</title>
<ellipse fill="none" stroke="black" cx="145" cy="-234" rx="27" ry="18"/>
<text text-anchor="middle" x="145" y="-230.3" font-family="Times,serif" font-size="14.00">b</text>
</g>
<!-- b&#45;&gt;ab -->
<g id="edge3" class="edge">
<title>b&#45;&gt;ab</title>
<path fill="none" stroke="black" d="M128.8,-219.17C116.82,-208.94 100.31,-194.85 86.82,-183.34"/>
<polygon fill="black" stroke="black" points="88.77,-180.39 78.89,-176.56 84.22,-185.72 88.77,-180.39"/>
</g>
<!-- bc -->
<g id="node9" class="node">
<title>bc</title>
<ellipse fill="none" stroke="black" cx="355" cy="-162" rx="27" ry="18"/>
<text text-anchor="middle" x="355" y="-158.3" font-family="Times,serif" font-size="14.00">bc</text>
</g>
<!-- b&#45;&gt;bc -->
<g id="edge4" class="edge">
<title>b&#45;&gt;bc</title>
<path fill="none" stroke="black" d="M166.05,-222.3C170.9,-220.05 176.07,-217.81 181,-216 238.47,-194.84 256.04,-199.77 314,-180 317.14,-178.93 320.38,-177.74 323.59,-176.5"/>
<polygon fill="black" stroke="black" points="325.09,-179.67 333.07,-172.7 322.49,-173.17 325.09,-179.67"/>
</g>
<!-- bd -->
<g id="node10" class="node">
<title>bd</title>
<ellipse fill="none" stroke="black" cx="173" cy="-162" rx="27" ry="18"/>
<text text-anchor="middle" x="173" y="-158.3" font-family="Times,serif" font-size="14.00">bd</text>
</g>
<!-- b&#45;&gt;bd -->
<g id="edge5" class="edge">
<title>b&#45;&gt;bd</title>
<path fill="none" stroke="black" d="M151.64,-216.41C154.91,-208.22 158.94,-198.14 162.62,-188.95"/>
<polygon fill="black" stroke="black" points="165.95,-190.05 166.41,-179.47 159.45,-187.45 165.95,-190.05"/>
</g>
<!-- c -->
<g id="node3" class="node">
<title>c</title>
<ellipse fill="none" stroke="black" cx="355" cy="-234" rx="27" ry="18"/>
<text text-anchor="middle" x="355" y="-230.3" font-family="Times,serif" font-size="14.00">c</text>
</g>
<!-- c&#45;&gt;bc -->
<g id="edge6" class="edge">
<title>c&#45;&gt;bc</title>
<path fill="none" stroke="black" d="M355,-215.7C355,-207.98 355,-198.71 355,-190.11"/>
<polygon fill="black" stroke="black" points="358.5,-190.1 355,-180.1 351.5,-190.1 358.5,-190.1"/>
</g>
<!-- d -->
<g id="node4" class="node">
<title>d</title>
<ellipse fill="none" stroke="black" cx="217" cy="-234" rx="27" ry="18"/>
<text text-anchor="middle" x="217" y="-230.3" font-family="Times,serif" font-size="14.00">d</text>
</g>
<!-- d&#45;&gt;bd -->
<g id="edge7" class="edge">
<title>d&#45;&gt;bd</title>
<path fill="none" stroke="black" d="M207.02,-217.12C201.5,-208.34 194.54,-197.26 188.35,-187.42"/>
<polygon fill="black" stroke="black" points="191.23,-185.42 182.94,-178.82 185.3,-189.15 191.23,-185.42"/>
</g>
<!-- e -->
<g id="node5" class="node">
<title>e</title>
<ellipse fill="none" stroke="black" cx="173" cy="-90" rx="27" ry="18"/>
<text text-anchor="middle" x="173" y="-86.3" font-family="Times,serif" font-size="14.00">e</text>
</g>
<!-- e&#45;&gt;ae -->
<g id="edge8" class="edge">
<title>e&#45;&gt;ae</title>
<path fill="none" stroke="black" d="M153.51,-77.44C134.38,-66.09 105,-48.66 83.29,-35.78"/>
<polygon fill="black" stroke="black" points="84.9,-32.67 74.51,-30.58 81.33,-38.69 84.9,-32.67"/>
</g>
<!-- ef -->
<g id="node12" class="node">
<title>ef</title>
<ellipse fill="none" stroke="black" cx="300" cy="-18" rx="27" ry="18"/>
<text text-anchor="middle" x="300" y="-14.3" font-family="Times,serif" font-size="14.00">ef</text>
</g>
<!-- e&#45;&gt;ef -->
<g id="edge9" class="edge">
<title>e&#45;&gt;ef</title>
<path fill="none" stroke="black" d="M193.12,-77.91C213.99,-66.41 246.84,-48.3 270.61,-35.2"/>
<polygon fill="black" stroke="black" points="272.48,-38.16 279.55,-30.27 269.1,-32.03 272.48,-38.16"/>
</g>
<!-- eg -->
<g id="node13" class="node">
<title>eg</title>
<ellipse fill="none" stroke="black" cx="173" cy="-18" rx="27" ry="18"/>
<text text-anchor="middle" x="173" y="-14.3" font-family="Times,serif" font-size="14.00">eg</text>
</g>
<!-- e&#45;&gt;eg -->
<g id="edge10" class="edge">
<title>e&#45;&gt;eg</title>
<path fill="none" stroke="black" d="M173,-71.7C173,-63.98 173,-54.71 173,-46.11"/>
<polygon fill="black" stroke="black" points="176.5,-46.1 173,-36.1 169.5,-46.1 176.5,-46.1"/>
</g>
<!-- f -->
<g id="node6" class="node">
<title>f</title>
<ellipse fill="none" stroke="black" cx="355" cy="-90" rx="27" ry="18"/>
<text text-anchor="middle" x="355" y="-86.3" font-family="Times,serif" font-size="14.00">f</text>
</g>
<!-- f&#45;&gt;ef -->
<g id="edge11" class="edge">
<title>f&#45;&gt;ef</title>
<path fill="none" stroke="black" d="M343.07,-73.81C335.79,-64.55 326.34,-52.52 318.15,-42.09"/>
<polygon fill="black" stroke="black" points="320.84,-39.86 311.91,-34.16 315.34,-44.18 320.84,-39.86"/>
</g>
<!-- g -->
<g id="node7" class="node">
<title>g</title>
<ellipse fill="none" stroke="black" cx="245" cy="-90" rx="27" ry="18"/>
<text text-anchor="middle" x="245" y="-86.3" font-family="Times,serif" font-size="14.00">g</text>
</g>
<!-- g&#45;&gt;eg -->
<g id="edge12" class="edge">
<title>g&#45;&gt;eg</title>
<path fill="none" stroke="black" d="M230.43,-74.83C220.25,-64.94 206.48,-51.55 194.97,-40.36"/>
<polygon fill="black" stroke="black" points="197.41,-37.85 187.8,-33.38 192.53,-42.87 197.41,-37.85"/>
</g>
<!-- bc&#45;&gt;e -->
<g id="edge13" class="edge">
<title>bc&#45;&gt;e</title>
<path fill="none" stroke="black" d="M331.22,-153.13C302.11,-143.32 251.44,-125.68 209,-108 207.18,-107.24 205.32,-106.44 203.45,-105.62"/>
<polygon fill="black" stroke="black" points="204.73,-102.35 194.17,-101.4 201.83,-108.73 204.73,-102.35"/>
</g>
<!-- bd&#45;&gt;e -->
<g id="edge14" class="edge">
<title>bd&#45;&gt;e</title>
<path fill="none" stroke="black" d="M173,-143.7C173,-135.98 173,-126.71 173,-118.11"/>
<polygon fill="black" stroke="black" points="176.5,-118.1 173,-108.1 169.5,-118.1 176.5,-118.1"/>
</g>
<!-- ef&#45;&gt;b -->
<g id="edge15" class="edge">
<title>ef&#45;&gt;b</title>
<path fill="none" stroke="black" d="M299.22,-36.06C297.74,-54.74 293.45,-85.1 281,-108 255.24,-155.39 204.63,-194.46 172.94,-215.69"/>
<polygon fill="black" stroke="black" points="170.98,-212.79 164.54,-221.2 174.82,-218.65 170.98,-212.79"/>
</g>
<!-- eg&#45;&gt;b -->
<g id="edge16" class="edge">
<title>eg&#45;&gt;b</title>
<path fill="none" stroke="black" d="M159.25,-33.93C151.04,-43.9 141.38,-57.75 137,-72 123.03,-117.42 131.11,-173.42 138.14,-205.98"/>
<polygon fill="black" stroke="black" points="134.81,-207.11 140.45,-216.08 141.63,-205.55 134.81,-207.11"/>
</g>
</g>
</svg>
